<svg version="1.1" viewBox="0.0 0.0 225.8215223097113 100.0" fill="none" stroke="none" stroke-linecap="square" stroke-miterlimit="10" xmlns:xlink="http://www.w3.org/1999/xlink" xmlns="http://www.w3.org/2000/svg"><clipPath id="p.0"><path d="m0 0l225.82152 0l0 100.0l-225.82152 0l0 -100.0z" clip-rule="nonzero"/></clipPath><g clip-path="url(#p.0)"><path fill="#000000" fill-opacity="0.0" d="m0 0l225.82152 0l0 100.0l-225.82152 0z" fill-rule="evenodd"/><path fill="#335c67" d="m51.478962 53.2147l0 0c0 -2.3222046 1.8825188 -4.2047234 4.2047234 -4.2047234l0 0c1.1151619 0 2.1846504 0.44299316 2.9731903 1.231533c0.7885361 0.7885399 1.231533 1.8580284 1.231533 2.9731903l0 0c0 2.3222046 -1.8825188 4.2047234 -4.2047234 4.2047234l0 0c-2.3222046 0 -4.2047234 -1.8825188 -4.2047234 -4.2047234z" fill-rule="evenodd"/><path fill="#335c67" d="m64.67581 53.2147l0 0c0 -2.3222046 1.8825226 -4.2047234 4.204727 -4.2047234l0 0c1.1151581 0 2.1846466 0.44299316 2.9731827 1.231533c0.7885437 0.7885399 1.2315369 1.8580284 1.2315369 2.9731903l0 0c0 2.3222046 -1.882515 4.2047234 -4.2047195 4.2047234l0 0c-2.3222046 0 -4.204727 -1.8825188 -4.204727 -4.2047234z" fill-rule="evenodd"/><path fill="#335c67" d="m58.077385 40.495537l0 0c0 -2.3222046 1.8825188 -4.2047234 4.204727 -4.2047234l0 0c1.1151619 0 2.1846466 0.44299698 2.9731903 1.2315369c0.7885361 0.7885361 1.2315292 1.8580246 1.2315292 2.9731865l0 0c0 2.3222046 -1.882515 4.204727 -4.2047195 4.204727l0 0c-2.3222084 0 -4.204727 -1.8825226 -4.204727 -4.204727z" fill-rule="evenodd"/><path fill="#000000" fill-opacity="0.0" d="m75.652596 36.34646l131.46457 0l0 35.46456l-131.46457 0z" fill-rule="evenodd"/><path fill="#335c67" d="m77.88697 59.386456l0 -10.328125l-1.34375 -0.15625q-0.25 -0.0625 -0.421875 -0.1875q-0.15625 -0.125 -0.15625 -0.375l0 -0.875l1.921875 0l0 -1.171875q0 -1.046875 0.28125 -1.84375q0.296875 -0.8125 0.84375 -1.375q0.546875 -0.5625 1.3125 -0.84375q0.78125 -0.296875 1.734375 -0.296875q0.8125 0 1.515625 0.25l-0.046875 1.0625q-0.015625 0.234375 -0.21875 0.296875q-0.1875 0.046875 -0.53125 0.046875l-0.375 0q-0.546875 0 -1.0 0.140625q-0.453125 0.140625 -0.78125 0.46875q-0.3125 0.3125 -0.484375 0.84375q-0.171875 0.53125 -0.171875 1.3125l0 1.109375l3.515625 0l0 1.546875l-3.453125 0l0 10.375l-2.140625 0zm24.688843 -3.546875q0.203125 0 0.359375 0.15625l0.90625 0.984375q-1.0625 1.234375 -2.5625 1.921875q-1.5 0.671875 -3.625 0.671875q-1.859375 0 -3.375 -0.640625q-1.515625 -0.640625 -2.59375 -1.796875q-1.0625 -1.15625 -1.65625 -2.765625q-0.578125 -1.625 -0.578125 -3.578125q0 -1.9375 0.625 -3.5625q0.640625 -1.625 1.78125 -2.78125q1.140625 -1.171875 2.71875 -1.8125q1.59375 -0.640625 3.515625 -0.640625q1.890625 0 3.265625 0.59375q1.375 0.578125 2.453125 1.59375l-0.765625 1.0625q-0.078125 0.125 -0.1875 0.203125q-0.109375 0.078125 -0.3125 0.078125q-0.15625 0 -0.328125 -0.109375q-0.171875 -0.125 -0.421875 -0.28125q-0.234375 -0.171875 -0.5625 -0.359375q-0.3125 -0.203125 -0.765625 -0.359375q-0.4375 -0.171875 -1.03125 -0.28125q-0.59375 -0.125 -1.359375 -0.125q-1.375 0 -2.53125 0.484375q-1.140625 0.46875 -1.96875 1.34375q-0.828125 0.875 -1.296875 2.140625q-0.453125 1.25 -0.453125 2.8125q0 1.609375 0.453125 2.875q0.46875 1.25 1.265625 2.125q0.796875 0.875 1.890625 1.328125q1.09375 0.453125 2.359375 0.453125q0.765625 0 1.375 -0.078125q0.609375 -0.09375 1.125 -0.28125q0.53125 -0.203125 0.984375 -0.5q0.453125 -0.296875 0.90625 -0.703125q0.203125 -0.171875 0.390625 -0.171875zm8.908859 -8.796875q1.328125 0 2.40625 0.453125q1.078125 0.4375 1.828125 1.25q0.75 0.8125 1.140625 1.96875q0.40625 1.15625 0.40625 2.59375q0 1.4375 -0.40625 2.59375q-0.390625 1.140625 -1.140625 1.96875q-0.75 0.8125 -1.828125 1.25q-1.078125 0.4375 -2.40625 0.4375q-1.328125 0 -2.40625 -0.4375q-1.078125 -0.4375 -1.828125 -1.25q-0.75 -0.828125 -1.171875 -1.96875q-0.40625 -1.15625 -0.40625 -2.59375q0 -1.4375 0.40625 -2.59375q0.421875 -1.15625 1.171875 -1.96875q0.75 -0.8125 1.828125 -1.25q1.078125 -0.453125 2.40625 -0.453125zm0 10.84375q1.796875 0 2.6875 -1.203125q0.890625 -1.203125 0.890625 -3.375q0 -2.171875 -0.890625 -3.375q-0.890625 -1.21875 -2.6875 -1.21875q-0.90625 0 -1.578125 0.3125q-0.671875 0.3125 -1.125 0.90625q-0.453125 0.578125 -0.671875 1.4375q-0.21875 0.859375 -0.21875 1.9375q0 1.09375 0.21875 1.953125q0.21875 0.84375 0.671875 1.421875q0.453125 0.578125 1.125 0.890625q0.671875 0.3125 1.578125 0.3125zm8.422226 1.5l0 -12.15625l1.28125 0q0.453125 0 0.5625 0.4375l0.171875 1.328125q0.796875 -0.875 1.765625 -1.40625q0.984375 -0.546875 2.265625 -0.546875q1.0 0 1.75 0.328125q0.7656174 0.328125 1.2812424 0.9375q0.515625 0.609375 0.78125 1.46875q0.265625 0.84375 0.265625 1.875l0 7.734375l-2.1406174 0l0 -7.734375q0 -1.390625 -0.640625 -2.140625q-0.625 -0.765625 -1.921875 -0.765625q-0.9375 0 -1.765625 0.453125q-0.828125 0.453125 -1.515625 1.234375l0 8.953125l-2.140625 0zm20.312843 -10.15625q-0.15625 0.265625 -0.453125 0.265625q-0.171875 0 -0.40625 -0.125q-0.234375 -0.140625 -0.5625 -0.296875q-0.328125 -0.15625 -0.78125 -0.296875q-0.453125 -0.140625 -1.078125 -0.140625q-0.546875 0 -0.984375 0.140625q-0.421875 0.140625 -0.734375 0.375q-0.296875 0.234375 -0.46875 0.5625q-0.15625 0.3125 -0.15625 0.6875q0 0.46875 0.265625 0.78125q0.28125 0.3125 0.71875 0.546875q0.453125 0.21875 1.015625 0.390625q0.5625 0.171875 1.15625 0.375q0.59375 0.1875 1.15625 0.4375q0.5625 0.234375 1.0 0.59375q0.453125 0.359375 0.71875 0.890625q0.265625 0.515625 0.265625 1.25q0 0.84375 -0.296875 1.5625q-0.296875 0.703125 -0.890625 1.234375q-0.578125 0.515625 -1.4375 0.8125q-0.84375 0.296875 -1.96875 0.296875q-1.265625 0 -2.296875 -0.40625q-1.03125 -0.421875 -1.75 -1.0625l0.5 -0.8125q0.09375 -0.15625 0.21875 -0.234375q0.140625 -0.09375 0.359375 -0.09375q0.21875 0 0.453125 0.171875q0.234375 0.15625 0.578125 0.359375q0.34375 0.203125 0.828125 0.375q0.484375 0.171875 1.21875 0.171875q0.625 0 1.09375 -0.15625q0.46875 -0.171875 0.78125 -0.4375q0.3125 -0.28125 0.453125 -0.640625q0.15625 -0.359375 0.15625 -0.765625q0 -0.515625 -0.265625 -0.84375q-0.265625 -0.328125 -0.71875 -0.5625q-0.4375 -0.234375 -1.015625 -0.40625q-0.5625 -0.171875 -1.15625 -0.359375q-0.59375 -0.203125 -1.171875 -0.4375q-0.5625 -0.25 -1.015625 -0.625q-0.4375 -0.375 -0.71875 -0.921875q-0.265625 -0.546875 -0.265625 -1.3125q0 -0.703125 0.28125 -1.34375q0.296875 -0.640625 0.84375 -1.125q0.5625 -0.484375 1.359375 -0.765625q0.8125 -0.296875 1.84375 -0.296875q1.203125 0 2.15625 0.375q0.953125 0.375 1.640625 1.03125l-0.46875 0.78125zm5.2910767 -2.0l0 7.75q0 1.375 0.640625 2.140625q0.640625 0.75 1.921875 0.75q0.9375 0 1.765625 -0.4375q0.828125 -0.453125 1.515625 -1.234375l0 -8.96875l2.140625 0l0 12.15625l-1.265625 0q-0.453125 0 -0.578125 -0.4375l-0.171875 -1.3125q-0.796875 0.875 -1.78125 1.40625q-0.984375 0.53125 -2.25 0.53125q-1.0 0 -1.765625 -0.328125q-0.75 -0.328125 -1.265625 -0.921875q-0.515625 -0.609375 -0.78125 -1.453125q-0.25 -0.859375 -0.25 -1.890625l0 -7.75l2.125 0zm13.875351 -5.515625l0 17.671875l-2.140625 0l0 -17.671875l2.140625 0zm7.456543 17.859375q-1.4375 0 -2.21875 -0.796875q-0.765625 -0.8125 -0.765625 -2.3125l0 -7.453125l-1.46875 0q-0.1875 0 -0.328125 -0.109375q-0.125 -0.109375 -0.125 -0.359375l0 -0.84375l1.984375 -0.25l0.5 -3.765625q0.015625 -0.171875 0.140625 -0.28125q0.140625 -0.125 0.34375 -0.125l1.078125 0l0 4.1875l3.484375 0l0 1.546875l-3.484375 0l0 7.296875q0 0.78125 0.375 1.15625q0.375 0.359375 0.96875 0.359375q0.328125 0 0.578125 -0.078125q0.25 -0.09375 0.421875 -0.203125q0.1875 -0.109375 0.3125 -0.203125q0.125 -0.09375 0.21875 -0.09375q0.171875 0 0.296875 0.203125l0.625 1.03125q-0.546875 0.515625 -1.328125 0.8125q-0.78125 0.28125 -1.609375 0.28125zm7.639557 -12.34375l0 12.15625l-2.140625 0l0 -12.15625l2.140625 0zm0.484375 -3.8125q0 0.3125 -0.125 0.578125q-0.125 0.265625 -0.34375 0.484375q-0.203125 0.203125 -0.484375 0.328125q-0.265625 0.125 -0.578125 0.125q-0.3125 0 -0.59375 -0.125q-0.265625 -0.125 -0.484375 -0.328125q-0.203125 -0.21875 -0.328125 -0.484375q-0.109375 -0.265625 -0.109375 -0.578125q0 -0.3125 0.109375 -0.59375q0.125 -0.28125 0.328125 -0.484375q0.21875 -0.21875 0.484375 -0.34375q0.28125 -0.125 0.59375 -0.125q0.3125 0 0.578125 0.125q0.28125 0.125 0.484375 0.34375q0.21875 0.203125 0.34375 0.484375q0.125 0.28125 0.125 0.59375zm3.284668 15.96875l0 -12.15625l1.28125 0q0.453125 0 0.5625 0.4375l0.171875 1.328125q0.796875 -0.875 1.765625 -1.40625q0.984375 -0.546875 2.265625 -0.546875q1.0 0 1.75 0.328125q0.765625 0.328125 1.28125 0.9375q0.515625 0.609375 0.78125 1.46875q0.265625 0.84375 0.265625 1.875l0 7.734375l-2.140625 0l0 -7.734375q0 -1.390625 -0.640625 -2.140625q-0.625 -0.765625 -1.921875 -0.765625q-0.9375 0 -1.765625 0.453125q-0.828125 0.453125 -1.515625 1.234375l0 8.953125l-2.140625 0zm17.43785 -12.359375q0.796875 0 1.484375 0.171875q0.6875 0.171875 1.25 0.515625l3.296875 0l0 0.78125q0 0.40625 -0.5 0.515625l-1.375 0.1875q0.40625 0.78125 0.40625 1.734375q0 0.890625 -0.34375 1.625q-0.34375 0.71875 -0.953125 1.234375q-0.59375 0.515625 -1.4375 0.796875q-0.828125 0.265625 -1.828125 0.265625q-0.859375 0 -1.609375 -0.203125q-0.375 0.25 -0.578125 0.53125q-0.203125 0.265625 -0.203125 0.53125q0 0.4375 0.34375 0.65625q0.359375 0.21875 0.921875 0.3125q0.578125 0.09375 1.3125 0.125q0.734375 0.015625 1.5 0.078125q0.765625 0.046875 1.484375 0.1875q0.734375 0.125 1.3125 0.4375q0.578125 0.296875 0.921875 0.828125q0.359375 0.515625 0.359375 1.359375q0 0.78125 -0.390625 1.515625q-0.390625 0.734375 -1.125 1.296875q-0.734375 0.578125 -1.796875 0.90625q-1.046875 0.34375 -2.375 0.34375q-1.34375 0 -2.34375 -0.265625q-1.0 -0.25 -1.65625 -0.703125q-0.65625 -0.4375 -1.0 -1.03125q-0.328125 -0.578125 -0.328125 -1.21875q0 -0.890625 0.5625 -1.515625q0.578125 -0.640625 1.578125 -1.015625q-0.515625 -0.234375 -0.828125 -0.625q-0.296875 -0.40625 -0.296875 -1.078125q0 -0.265625 0.09375 -0.546875q0.09375 -0.28125 0.296875 -0.5625q0.203125 -0.28125 0.484375 -0.53125q0.28125 -0.25 0.671875 -0.4375q-0.90625 -0.5 -1.421875 -1.328125q-0.5 -0.84375 -0.5 -1.96875q0 -0.890625 0.34375 -1.609375q0.34375 -0.71875 0.953125 -1.234375q0.609375 -0.515625 1.453125 -0.78125q0.859375 -0.28125 1.859375 -0.28125zm3.796875 13.015625q0 -0.453125 -0.265625 -0.71875q-0.25 -0.28125 -0.6875 -0.421875q-0.421875 -0.15625 -0.984375 -0.234375q-0.5625 -0.078125 -1.1875 -0.109375q-0.625 -0.03125 -1.28125 -0.0625q-0.640625 -0.03125 -1.21875 -0.125q-0.6875 0.3125 -1.125 0.78125q-0.421875 0.46875 -0.421875 1.125q0 0.40625 0.203125 0.75q0.21875 0.359375 0.640625 0.609375q0.4375 0.265625 1.09375 0.40625q0.65625 0.15625 1.546875 0.15625q0.859375 0 1.546875 -0.15625q0.6875 -0.140625 1.15625 -0.4375q0.46875 -0.28125 0.71875 -0.6875q0.265625 -0.390625 0.265625 -0.875zm-3.796875 -6.59375q0.640625 0 1.140625 -0.171875q0.5 -0.1875 0.828125 -0.515625q0.34375 -0.328125 0.515625 -0.765625q0.171875 -0.453125 0.171875 -1.0q0 -1.109375 -0.6875 -1.765625q-0.671875 -0.671875 -1.96875 -0.671875q-1.28125 0 -1.96875 0.671875q-0.671875 0.65625 -0.671875 1.765625q0 0.546875 0.171875 1.0q0.171875 0.4375 0.5 0.765625q0.34375 0.328125 0.828125 0.515625q0.5 0.171875 1.140625 0.171875z" fill-rule="nonzero"/><path fill="#000000" fill-opacity="0.0" d="m17.034462 36.346146l31.968502 0l0 35.46457l-31.968502 0z" fill-rule="evenodd"/><path fill="#335c67" d="m29.30741 52.948647l0 6.4375l-2.3125 0l0 -17.203125l5.078123 0q1.625 0 2.828125 0.390625q1.21875 0.375 2.0 1.078125q0.796875 0.6875 1.1875 1.671875q0.390625 0.984375 0.390625 2.1875q0 1.203125 -0.421875 2.203125q-0.421875 1.0 -1.234375 1.71875q-0.796875 0.71875 -2.0 1.125q-1.203125 0.390625 -2.75 0.390625l-2.765623 0zm0 -1.84375l2.765623 0q1.0 0 1.75 -0.265625q0.765625 -0.265625 1.28125 -0.734375q0.515625 -0.46875 0.78125 -1.125q0.265625 -0.671875 0.265625 -1.46875q0 -1.640625 -1.015625 -2.5625q-1.015625 -0.921875 -3.0625 -0.921875l-2.765623 0l0 7.078125zm11.773481 8.28125l0 -12.15625l1.21875 0q0.359375 0 0.484375 0.140625q0.140625 0.125 0.1875 0.453125l0.140625 1.890625q0.625 -1.265625 1.53125 -1.984375q0.921875 -0.71875 2.15625 -0.71875q0.515625 0 0.921875 0.125q0.40625 0.109375 0.75 0.3125l-0.265625 1.59375q-0.09375 0.296875 -0.375 0.296875q-0.171875 0 -0.53125 -0.109375q-0.34375 -0.109375 -0.953125 -0.109375q-1.125 0 -1.875 0.65625q-0.75 0.640625 -1.25 1.875l0 7.734375l-2.140625 0z" fill-rule="nonzero"/></g></svg>